<mxfile host="Electron" agent="Mozilla/5.0 (X11; Linux x86_64) AppleWebKit/537.36 (KHTML, like Gecko) draw.io/27.0.5 Chrome/134.0.6998.205 Electron/35.3.0 Safari/537.36" version="27.0.5">
  <diagram name="Page-1" id="dSdJeMkfFmyMUdHw3lyd">
    <mxGraphModel dx="1216" dy="1151" grid="1" gridSize="10" guides="1" tooltips="1" connect="1" arrows="1" fold="1" page="1" pageScale="1" pageWidth="850" pageHeight="1100" math="0" shadow="0">
      <root>
        <mxCell id="0" />
        <mxCell id="1" parent="0" />
        <mxCell id="8KfAuH7SRfaGY1whr0Hw-1" value="" style="line;strokeWidth=2;direction=south;html=1;fillColor=none;fontSize=13;fontColor=#000000;align=center;strokeColor=light-dark(#ac8680, #ec8f82);rotation=90;" parent="1" vertex="1">
          <mxGeometry x="1269.38" y="-100" width="10" height="678.75" as="geometry" />
        </mxCell>
        <mxCell id="8KfAuH7SRfaGY1whr0Hw-2" style="edgeStyle=none;shape=connector;curved=0;rounded=0;hachureGap=4;orthogonalLoop=1;jettySize=auto;html=1;entryX=0.5;entryY=0;entryDx=0;entryDy=0;shadow=1;strokeColor=default;align=center;verticalAlign=middle;fontFamily=Architects Daughter;fontSource=https%3A%2F%2Ffonts.googleapis.com%2Fcss%3Ffamily%3DArchitects%2BDaughter;fontSize=11;fontColor=default;labelBackgroundColor=default;startArrow=none;startFill=0;endArrow=blockThin;endFill=1;flowAnimation=0;targetPerimeterSpacing=0;" parent="1" source="8KfAuH7SRfaGY1whr0Hw-3" target="8KfAuH7SRfaGY1whr0Hw-28" edge="1">
          <mxGeometry relative="1" as="geometry" />
        </mxCell>
        <mxCell id="8KfAuH7SRfaGY1whr0Hw-3" value="rtest&lt;br&gt;&lt;div&gt;&lt;font style=&quot;font-size: 14px;&quot;&gt;C++ Testing API&lt;/font&gt;&lt;/div&gt;" style="rounded=1;whiteSpace=wrap;html=1;strokeColor=none;strokeWidth=1;fillColor=#F2931E;fontSize=24;fontColor=#FFFFFF;align=center;gradientColor=none;gradientDirection=east;verticalAlign=middle;shadow=1;" parent="1" vertex="1">
          <mxGeometry x="1375" y="264.37" width="220" height="85" as="geometry" />
        </mxCell>
        <mxCell id="8KfAuH7SRfaGY1whr0Hw-4" value="rclcpp&lt;div&gt;&lt;font style=&quot;font-size: 14px;&quot;&gt;C++ API&lt;/font&gt;&lt;/div&gt;" style="rounded=1;whiteSpace=wrap;html=1;strokeColor=none;strokeWidth=1;fillColor=#2980B9;fontSize=24;fontColor=#FFFFFF;align=center;gradientColor=none;gradientDirection=east;verticalAlign=middle;shadow=1;fontFamily=Helvetica;" parent="1" vertex="1">
          <mxGeometry x="955" y="304.37" width="220" height="85" as="geometry" />
        </mxCell>
        <mxCell id="8KfAuH7SRfaGY1whr0Hw-5" value="ROS 2&lt;div&gt;Node&lt;/div&gt;" style="rounded=1;whiteSpace=wrap;html=1;strokeColor=none;strokeWidth=1;fillColor=#739F6B;fontSize=24;fontColor=#FFFFFF;align=center;gradientColor=none;gradientDirection=east;verticalAlign=middle;shadow=1;fontFamily=Helvetica;" parent="1" vertex="1">
          <mxGeometry x="955" y="134.37" width="220" height="85" as="geometry" />
        </mxCell>
        <mxCell id="8KfAuH7SRfaGY1whr0Hw-6" value="rcl&lt;div&gt;&lt;span style=&quot;font-size: 14px;&quot;&gt;ROS Core Library&lt;/span&gt;&lt;/div&gt;" style="rounded=1;whiteSpace=wrap;html=1;strokeColor=none;strokeWidth=1;fillColor=#ABABAB;fontSize=24;fontColor=#FFFFFF;align=center;gradientColor=none;gradientDirection=east;verticalAlign=middle;shadow=1;" parent="1" vertex="1">
          <mxGeometry x="955" y="424.37" width="220" height="85" as="geometry" />
        </mxCell>
        <mxCell id="8KfAuH7SRfaGY1whr0Hw-7" value="rmw&lt;br&gt;&lt;div&gt;&lt;span style=&quot;font-size: 14px;&quot;&gt;ROS Middleware Interface&lt;/span&gt;&lt;/div&gt;" style="rounded=1;whiteSpace=wrap;html=1;strokeColor=none;strokeWidth=1;fillColor=#ABABAB;fontSize=24;fontColor=#FFFFFF;align=center;gradientColor=none;gradientDirection=east;verticalAlign=middle;shadow=1;" parent="1" vertex="1">
          <mxGeometry x="955" y="544.37" width="220" height="85" as="geometry" />
        </mxCell>
        <mxCell id="8KfAuH7SRfaGY1whr0Hw-8" value="DDS / Zenoh / ..&lt;br&gt;&lt;div&gt;&lt;span style=&quot;font-size: 14px;&quot;&gt;Middleware Implementation&lt;/span&gt;&lt;/div&gt;" style="rounded=1;whiteSpace=wrap;html=1;strokeColor=none;strokeWidth=1;fillColor=#ABABAB;fontSize=24;fontColor=#FFFFFF;align=center;gradientColor=none;gradientDirection=east;verticalAlign=middle;shadow=1;" parent="1" vertex="1">
          <mxGeometry x="955" y="664.37" width="220" height="85" as="geometry" />
        </mxCell>
        <mxCell id="8KfAuH7SRfaGY1whr0Hw-9" value="ROS 2&lt;div&gt;Node Test&lt;/div&gt;" style="rounded=1;whiteSpace=wrap;html=1;strokeColor=none;strokeWidth=1;fillColor=#739F6B;fontSize=24;fontColor=#FFFFFF;align=center;gradientColor=none;gradientDirection=east;verticalAlign=middle;shadow=1;fontFamily=Helvetica;" parent="1" vertex="1">
          <mxGeometry x="1375" y="134.37" width="220" height="85" as="geometry" />
        </mxCell>
        <mxCell id="8KfAuH7SRfaGY1whr0Hw-10" value="" style="endArrow=blockThin;html=1;rounded=0;shadow=1;hachureGap=4;strokeColor=default;align=center;verticalAlign=middle;fontFamily=Architects Daughter;fontSource=https%3A%2F%2Ffonts.googleapis.com%2Fcss%3Ffamily%3DArchitects%2BDaughter;fontSize=11;fontColor=default;labelBackgroundColor=default;flowAnimation=0;targetPerimeterSpacing=0;curved=0;endFill=1;exitX=0.25;exitY=1;exitDx=0;exitDy=0;entryX=0.25;entryY=0;entryDx=0;entryDy=0;" parent="1" source="8KfAuH7SRfaGY1whr0Hw-4" target="8KfAuH7SRfaGY1whr0Hw-6" edge="1">
          <mxGeometry width="50" height="50" relative="1" as="geometry">
            <mxPoint x="1235" y="524.37" as="sourcePoint" />
            <mxPoint x="1285" y="474.37" as="targetPoint" />
          </mxGeometry>
        </mxCell>
        <mxCell id="8KfAuH7SRfaGY1whr0Hw-11" value="" style="endArrow=blockThin;html=1;rounded=0;shadow=1;hachureGap=4;strokeColor=default;align=center;verticalAlign=middle;fontFamily=Architects Daughter;fontSource=https%3A%2F%2Ffonts.googleapis.com%2Fcss%3Ffamily%3DArchitects%2BDaughter;fontSize=11;fontColor=default;labelBackgroundColor=default;flowAnimation=0;targetPerimeterSpacing=0;curved=0;entryX=0.75;entryY=1;entryDx=0;entryDy=0;exitX=0.75;exitY=0;exitDx=0;exitDy=0;endFill=1;" parent="1" source="8KfAuH7SRfaGY1whr0Hw-6" target="8KfAuH7SRfaGY1whr0Hw-4" edge="1">
          <mxGeometry width="50" height="50" relative="1" as="geometry">
            <mxPoint x="1235" y="524.37" as="sourcePoint" />
            <mxPoint x="1285" y="474.37" as="targetPoint" />
          </mxGeometry>
        </mxCell>
        <mxCell id="8KfAuH7SRfaGY1whr0Hw-12" value="" style="endArrow=blockThin;html=1;rounded=0;shadow=1;hachureGap=4;strokeColor=default;align=center;verticalAlign=middle;fontFamily=Architects Daughter;fontSource=https%3A%2F%2Ffonts.googleapis.com%2Fcss%3Ffamily%3DArchitects%2BDaughter;fontSize=11;fontColor=default;labelBackgroundColor=default;flowAnimation=0;targetPerimeterSpacing=0;curved=0;endFill=1;exitX=0.25;exitY=1;exitDx=0;exitDy=0;entryX=0.25;entryY=0;entryDx=0;entryDy=0;" parent="1" source="8KfAuH7SRfaGY1whr0Hw-6" target="8KfAuH7SRfaGY1whr0Hw-7" edge="1">
          <mxGeometry width="50" height="50" relative="1" as="geometry">
            <mxPoint x="979.8" y="509.37" as="sourcePoint" />
            <mxPoint x="979.8" y="544.37" as="targetPoint" />
          </mxGeometry>
        </mxCell>
        <mxCell id="8KfAuH7SRfaGY1whr0Hw-13" value="" style="endArrow=blockThin;html=1;rounded=0;shadow=1;hachureGap=4;strokeColor=default;align=center;verticalAlign=middle;fontFamily=Architects Daughter;fontSource=https%3A%2F%2Ffonts.googleapis.com%2Fcss%3Ffamily%3DArchitects%2BDaughter;fontSize=11;fontColor=default;labelBackgroundColor=default;flowAnimation=0;targetPerimeterSpacing=0;curved=0;endFill=1;exitX=0.25;exitY=1;exitDx=0;exitDy=0;entryX=0.25;entryY=0;entryDx=0;entryDy=0;" parent="1" source="8KfAuH7SRfaGY1whr0Hw-7" target="8KfAuH7SRfaGY1whr0Hw-8" edge="1">
          <mxGeometry width="50" height="50" relative="1" as="geometry">
            <mxPoint x="935" y="614.37" as="sourcePoint" />
            <mxPoint x="935" y="649.37" as="targetPoint" />
          </mxGeometry>
        </mxCell>
        <mxCell id="8KfAuH7SRfaGY1whr0Hw-14" value="" style="endArrow=blockThin;html=1;rounded=0;shadow=1;hachureGap=4;strokeColor=default;align=center;verticalAlign=middle;fontFamily=Architects Daughter;fontSource=https%3A%2F%2Ffonts.googleapis.com%2Fcss%3Ffamily%3DArchitects%2BDaughter;fontSize=11;fontColor=default;labelBackgroundColor=default;flowAnimation=0;targetPerimeterSpacing=0;curved=0;entryX=0.75;entryY=1;entryDx=0;entryDy=0;exitX=0.75;exitY=0;exitDx=0;exitDy=0;endFill=1;" parent="1" source="8KfAuH7SRfaGY1whr0Hw-7" target="8KfAuH7SRfaGY1whr0Hw-6" edge="1">
          <mxGeometry width="50" height="50" relative="1" as="geometry">
            <mxPoint x="1205" y="559.37" as="sourcePoint" />
            <mxPoint x="1205" y="524.37" as="targetPoint" />
          </mxGeometry>
        </mxCell>
        <mxCell id="8KfAuH7SRfaGY1whr0Hw-15" value="" style="endArrow=blockThin;html=1;rounded=0;shadow=1;hachureGap=4;strokeColor=default;align=center;verticalAlign=middle;fontFamily=Architects Daughter;fontSource=https%3A%2F%2Ffonts.googleapis.com%2Fcss%3Ffamily%3DArchitects%2BDaughter;fontSize=11;fontColor=default;labelBackgroundColor=default;flowAnimation=0;targetPerimeterSpacing=0;curved=0;entryX=0.75;entryY=1;entryDx=0;entryDy=0;exitX=0.75;exitY=0;exitDx=0;exitDy=0;endFill=1;" parent="1" source="8KfAuH7SRfaGY1whr0Hw-8" target="8KfAuH7SRfaGY1whr0Hw-7" edge="1">
          <mxGeometry width="50" height="50" relative="1" as="geometry">
            <mxPoint x="1215" y="659.37" as="sourcePoint" />
            <mxPoint x="1215" y="624.37" as="targetPoint" />
          </mxGeometry>
        </mxCell>
        <mxCell id="8KfAuH7SRfaGY1whr0Hw-16" value="&lt;span style=&quot;font-size: 14px;&quot;&gt;rtest&lt;/span&gt;" style="rounded=1;whiteSpace=wrap;html=1;strokeColor=none;strokeWidth=1;fillColor=#F2931E;fontSize=24;fontColor=#FFFFFF;align=center;gradientColor=none;gradientDirection=east;verticalAlign=bottom;shadow=0;arcSize=26;" parent="1" vertex="1">
          <mxGeometry x="985" y="294.37" width="190" height="25" as="geometry" />
        </mxCell>
        <mxCell id="8KfAuH7SRfaGY1whr0Hw-17" value="" style="endArrow=blockThin;html=1;rounded=0;shadow=1;hachureGap=4;strokeColor=default;align=center;verticalAlign=middle;fontFamily=Architects Daughter;fontSource=https%3A%2F%2Ffonts.googleapis.com%2Fcss%3Ffamily%3DArchitects%2BDaughter;fontSize=11;fontColor=default;labelBackgroundColor=default;flowAnimation=0;targetPerimeterSpacing=0;curved=0;entryX=0.773;entryY=1;entryDx=0;entryDy=0;exitX=0.737;exitY=0.004;exitDx=0;exitDy=0;endFill=1;entryPerimeter=0;exitPerimeter=0;" parent="1" source="8KfAuH7SRfaGY1whr0Hw-16" target="8KfAuH7SRfaGY1whr0Hw-5" edge="1">
          <mxGeometry width="50" height="50" relative="1" as="geometry">
            <mxPoint x="1130" y="434.37" as="sourcePoint" />
            <mxPoint x="1130" y="399.37" as="targetPoint" />
          </mxGeometry>
        </mxCell>
        <mxCell id="8KfAuH7SRfaGY1whr0Hw-18" value="" style="endArrow=blockThin;html=1;rounded=0;shadow=1;hachureGap=4;strokeColor=default;align=center;verticalAlign=middle;fontFamily=Architects Daughter;fontSource=https%3A%2F%2Ffonts.googleapis.com%2Fcss%3Ffamily%3DArchitects%2BDaughter;fontSize=11;fontColor=default;labelBackgroundColor=default;flowAnimation=0;targetPerimeterSpacing=0;curved=0;endFill=1;exitX=0.545;exitY=1;exitDx=0;exitDy=0;entryX=0.473;entryY=0.004;entryDx=0;entryDy=0;entryPerimeter=0;exitPerimeter=0;" parent="1" source="8KfAuH7SRfaGY1whr0Hw-5" target="8KfAuH7SRfaGY1whr0Hw-16" edge="1">
          <mxGeometry width="50" height="50" relative="1" as="geometry">
            <mxPoint x="1020" y="399.37" as="sourcePoint" />
            <mxPoint x="1020" y="434.37" as="targetPoint" />
          </mxGeometry>
        </mxCell>
        <mxCell id="8KfAuH7SRfaGY1whr0Hw-19" value="" style="endArrow=blockThin;html=1;rounded=0;shadow=1;hachureGap=4;strokeColor=#B3B3B3;align=center;verticalAlign=middle;fontFamily=Architects Daughter;fontSource=https%3A%2F%2Ffonts.googleapis.com%2Fcss%3Ffamily%3DArchitects%2BDaughter;fontSize=11;fontColor=default;labelBackgroundColor=default;flowAnimation=0;targetPerimeterSpacing=0;curved=0;endFill=1;exitX=0.096;exitY=1;exitDx=0;exitDy=0;entryX=0.096;entryY=-0.001;entryDx=0;entryDy=0;exitPerimeter=0;entryPerimeter=0;startArrow=blockThin;startFill=1;" parent="1" source="8KfAuH7SRfaGY1whr0Hw-5" target="8KfAuH7SRfaGY1whr0Hw-4" edge="1">
          <mxGeometry width="50" height="50" relative="1" as="geometry">
            <mxPoint x="1030" y="409.37" as="sourcePoint" />
            <mxPoint x="1030" y="444.37" as="targetPoint" />
          </mxGeometry>
        </mxCell>
        <mxCell id="8KfAuH7SRfaGY1whr0Hw-20" value="" style="endArrow=block;startArrow=block;html=1;rounded=0;shadow=1;hachureGap=4;strokeColor=default;align=center;verticalAlign=middle;fontFamily=Architects Daughter;fontSource=https%3A%2F%2Ffonts.googleapis.com%2Fcss%3Ffamily%3DArchitects%2BDaughter;fontSize=11;fontColor=default;labelBackgroundColor=default;flowAnimation=0;targetPerimeterSpacing=0;curved=0;exitX=1;exitY=0.5;exitDx=0;exitDy=0;entryX=0;entryY=0.5;entryDx=0;entryDy=0;strokeWidth=2;startFill=1;endFill=1;" parent="1" source="8KfAuH7SRfaGY1whr0Hw-16" target="8KfAuH7SRfaGY1whr0Hw-3" edge="1">
          <mxGeometry width="50" height="50" relative="1" as="geometry">
            <mxPoint x="1205" y="399.37" as="sourcePoint" />
            <mxPoint x="1365" y="399.37" as="targetPoint" />
          </mxGeometry>
        </mxCell>
        <mxCell id="8KfAuH7SRfaGY1whr0Hw-21" value="" style="endArrow=blockThin;html=1;rounded=0;shadow=1;hachureGap=4;strokeColor=default;align=center;verticalAlign=middle;fontFamily=Architects Daughter;fontSource=https%3A%2F%2Ffonts.googleapis.com%2Fcss%3Ffamily%3DArchitects%2BDaughter;fontSize=11;fontColor=default;labelBackgroundColor=default;flowAnimation=0;targetPerimeterSpacing=0;curved=0;endFill=1;exitX=0.25;exitY=1;exitDx=0;exitDy=0;entryX=0.25;entryY=0;entryDx=0;entryDy=0;" parent="1" source="8KfAuH7SRfaGY1whr0Hw-9" target="8KfAuH7SRfaGY1whr0Hw-3" edge="1">
          <mxGeometry width="50" height="50" relative="1" as="geometry">
            <mxPoint x="1055" y="394.37" as="sourcePoint" />
            <mxPoint x="1055" y="429.37" as="targetPoint" />
          </mxGeometry>
        </mxCell>
        <mxCell id="8KfAuH7SRfaGY1whr0Hw-22" value="" style="endArrow=blockThin;html=1;rounded=0;shadow=1;hachureGap=4;strokeColor=default;align=center;verticalAlign=middle;fontFamily=Architects Daughter;fontSource=https%3A%2F%2Ffonts.googleapis.com%2Fcss%3Ffamily%3DArchitects%2BDaughter;fontSize=11;fontColor=default;labelBackgroundColor=default;flowAnimation=0;targetPerimeterSpacing=0;curved=0;entryX=0.75;entryY=1;entryDx=0;entryDy=0;exitX=0.75;exitY=0;exitDx=0;exitDy=0;endFill=1;" parent="1" source="8KfAuH7SRfaGY1whr0Hw-3" target="8KfAuH7SRfaGY1whr0Hw-9" edge="1">
          <mxGeometry width="50" height="50" relative="1" as="geometry">
            <mxPoint x="1165" y="429.37" as="sourcePoint" />
            <mxPoint x="1165" y="394.37" as="targetPoint" />
          </mxGeometry>
        </mxCell>
        <mxCell id="8KfAuH7SRfaGY1whr0Hw-23" style="edgeStyle=none;shape=connector;curved=0;rounded=0;hachureGap=4;orthogonalLoop=1;jettySize=auto;html=1;entryX=1;entryY=0.5;entryDx=0;entryDy=0;shadow=1;strokeColor=default;align=center;verticalAlign=middle;fontFamily=Architects Daughter;fontSource=https%3A%2F%2Ffonts.googleapis.com%2Fcss%3Ffamily%3DArchitects%2BDaughter;fontSize=11;fontColor=default;labelBackgroundColor=default;startArrow=blockThin;startFill=1;endArrow=blockThin;endFill=1;flowAnimation=0;targetPerimeterSpacing=0;" parent="1" source="8KfAuH7SRfaGY1whr0Hw-24" target="8KfAuH7SRfaGY1whr0Hw-6" edge="1">
          <mxGeometry relative="1" as="geometry" />
        </mxCell>
        <mxCell id="8KfAuH7SRfaGY1whr0Hw-24" value="Time Source" style="pointerEvents=1;shadow=0;dashed=0;html=1;strokeColor=none;fillColor=#505050;labelPosition=center;verticalLabelPosition=top;verticalAlign=bottom;outlineConnect=0;align=center;shape=mxgraph.office.concepts.clock;hachureGap=4;fontFamily=Helvetica;fontSize=15;fontColor=default;labelBackgroundColor=none;" parent="1" vertex="1">
          <mxGeometry x="1255" y="436.87" width="60.62" height="60" as="geometry" />
        </mxCell>
        <mxCell id="8KfAuH7SRfaGY1whr0Hw-25" style="edgeStyle=none;shape=connector;curved=0;rounded=0;hachureGap=4;orthogonalLoop=1;jettySize=auto;html=1;shadow=1;strokeColor=default;align=center;verticalAlign=middle;fontFamily=Architects Daughter;fontSource=https%3A%2F%2Ffonts.googleapis.com%2Fcss%3Ffamily%3DArchitects%2BDaughter;fontSize=11;fontColor=default;labelBackgroundColor=default;startArrow=none;startFill=0;endArrow=blockThin;endFill=1;flowAnimation=0;targetPerimeterSpacing=0;" parent="1" source="8KfAuH7SRfaGY1whr0Hw-26" target="8KfAuH7SRfaGY1whr0Hw-24" edge="1">
          <mxGeometry relative="1" as="geometry" />
        </mxCell>
        <mxCell id="8KfAuH7SRfaGY1whr0Hw-26" value="ROS&lt;br&gt;&lt;div&gt;Time&lt;/div&gt;" style="rounded=1;whiteSpace=wrap;html=1;strokeColor=none;strokeWidth=1;fillColor=#2980B9;fontSize=14;fontColor=#FFFFFF;align=center;gradientColor=none;gradientDirection=east;verticalAlign=middle;shadow=1;fontFamily=Helvetica;" parent="1" vertex="1">
          <mxGeometry x="1235" y="542.5" width="100.93" height="40" as="geometry" />
        </mxCell>
        <mxCell id="8KfAuH7SRfaGY1whr0Hw-27" style="edgeStyle=none;shape=connector;curved=0;rounded=0;hachureGap=4;orthogonalLoop=1;jettySize=auto;html=1;entryX=1;entryY=0.5;entryDx=0;entryDy=0;shadow=1;strokeColor=default;align=center;verticalAlign=middle;fontFamily=Architects Daughter;fontSource=https%3A%2F%2Ffonts.googleapis.com%2Fcss%3Ffamily%3DArchitects%2BDaughter;fontSize=11;fontColor=default;labelBackgroundColor=default;startArrow=none;startFill=0;endArrow=blockThin;endFill=1;flowAnimation=0;targetPerimeterSpacing=0;" parent="1" source="8KfAuH7SRfaGY1whr0Hw-28" target="8KfAuH7SRfaGY1whr0Hw-26" edge="1">
          <mxGeometry relative="1" as="geometry" />
        </mxCell>
        <mxCell id="8KfAuH7SRfaGY1whr0Hw-28" value="Simulated&lt;br&gt;&lt;div&gt;Time&lt;/div&gt;" style="rounded=1;whiteSpace=wrap;html=1;strokeColor=none;strokeWidth=1;fillColor=#F2931E;fontSize=14;fontColor=#FFFFFF;align=center;gradientColor=none;gradientDirection=east;verticalAlign=middle;shadow=1;" parent="1" vertex="1">
          <mxGeometry x="1434.54" y="542.5" width="100.93" height="40" as="geometry" />
        </mxCell>
      </root>
    </mxGraphModel>
  </diagram>
</mxfile>
